<?xml version="1.0" encoding="UTF-8" standalone="no"?><svg xmlns="http://www.w3.org/2000/svg" xmlns:xlink="http://www.w3.org/1999/xlink" contentScriptType="application/ecmascript" contentStyleType="text/css" height="572px" preserveAspectRatio="none" style="width:854px;height:572px;" version="1.1" viewBox="0 0 854 572" width="854px" zoomAndPan="magnify"><defs><filter height="300%" id="fzccz2akrej4l" width="300%" x="-1" y="-1"><feGaussianBlur result="blurOut" stdDeviation="2.0"/><feColorMatrix in="blurOut" result="blurOut2" type="matrix" values="0 0 0 0 0 0 0 0 0 0 0 0 0 0 0 0 0 0 .4 0"/><feOffset dx="4.0" dy="4.0" in="blurOut2" result="blurOut3"/><feBlend in="SourceGraphic" in2="blurOut3" mode="normal"/></filter></defs><g><line style="stroke: #A80036; stroke-width: 1.0; stroke-dasharray: 5.0,5.0;" x1="27" x2="27" y1="86.2969" y2="485.0234"/><line style="stroke: #A80036; stroke-width: 1.0; stroke-dasharray: 5.0,5.0;" x1="249" x2="249" y1="86.2969" y2="485.0234"/><line style="stroke: #A80036; stroke-width: 1.0; stroke-dasharray: 5.0,5.0;" x1="377" x2="377" y1="86.2969" y2="485.0234"/><line style="stroke: #A80036; stroke-width: 1.0; stroke-dasharray: 5.0,5.0;" x1="475" x2="475" y1="86.2969" y2="485.0234"/><line style="stroke: #A80036; stroke-width: 1.0; stroke-dasharray: 5.0,5.0;" x1="566" x2="566" y1="86.2969" y2="485.0234"/><line style="stroke: #A80036; stroke-width: 1.0; stroke-dasharray: 5.0,5.0;" x1="654" x2="654" y1="86.2969" y2="485.0234"/><line style="stroke: #A80036; stroke-width: 1.0; stroke-dasharray: 5.0,5.0;" x1="734" x2="734" y1="86.2969" y2="485.0234"/><line style="stroke: #A80036; stroke-width: 1.0; stroke-dasharray: 5.0,5.0;" x1="810" x2="810" y1="86.2969" y2="485.0234"/><text fill="#000000" font-family="sans-serif" font-size="14" lengthAdjust="spacingAndGlyphs" textLength="32" x="8" y="82.9951">User</text><ellipse cx="27" cy="13" fill="#FEFECE" filter="url(#fzccz2akrej4l)" rx="8" ry="8" style="stroke: #A80036; stroke-width: 2.0;"/><path d="M27,21 L27,48 M14,29 L40,29 M27,48 L14,63 M27,48 L40,63 " fill="none" filter="url(#fzccz2akrej4l)" style="stroke: #A80036; stroke-width: 2.0;"/><text fill="#000000" font-family="sans-serif" font-size="14" lengthAdjust="spacingAndGlyphs" textLength="32" x="8" y="497.0186">User</text><ellipse cx="27" cy="510.3203" fill="#FEFECE" filter="url(#fzccz2akrej4l)" rx="8" ry="8" style="stroke: #A80036; stroke-width: 2.0;"/><path d="M27,518.3203 L27,545.3203 M14,526.3203 L40,526.3203 M27,545.3203 L14,560.3203 M27,545.3203 L40,560.3203 " fill="none" filter="url(#fzccz2akrej4l)" style="stroke: #A80036; stroke-width: 2.0;"/><rect fill="#FEFECE" filter="url(#fzccz2akrej4l)" height="30.2969" style="stroke: #A80036; stroke-width: 1.5;" width="88" x="203" y="51"/><text fill="#000000" font-family="sans-serif" font-size="14" lengthAdjust="spacingAndGlyphs" textLength="74" x="210" y="70.9951">Integration</text><rect fill="#FEFECE" filter="url(#fzccz2akrej4l)" height="30.2969" style="stroke: #A80036; stroke-width: 1.5;" width="88" x="203" y="484.0234"/><text fill="#000000" font-family="sans-serif" font-size="14" lengthAdjust="spacingAndGlyphs" textLength="74" x="210" y="504.0186">Integration</text><rect fill="#FEFECE" filter="url(#fzccz2akrej4l)" height="30.2969" style="stroke: #A80036; stroke-width: 1.5;" width="76" x="337" y="51"/><text fill="#000000" font-family="sans-serif" font-size="14" lengthAdjust="spacingAndGlyphs" textLength="62" x="344" y="70.9951">Workflow</text><rect fill="#FEFECE" filter="url(#fzccz2akrej4l)" height="30.2969" style="stroke: #A80036; stroke-width: 1.5;" width="76" x="337" y="484.0234"/><text fill="#000000" font-family="sans-serif" font-size="14" lengthAdjust="spacingAndGlyphs" textLength="62" x="344" y="504.0186">Workflow</text><rect fill="#FEFECE" filter="url(#fzccz2akrej4l)" height="30.2969" style="stroke: #A80036; stroke-width: 1.5;" width="84" x="431" y="51"/><text fill="#000000" font-family="sans-serif" font-size="14" lengthAdjust="spacingAndGlyphs" textLength="70" x="438" y="70.9951">Processor</text><rect fill="#FEFECE" filter="url(#fzccz2akrej4l)" height="30.2969" style="stroke: #A80036; stroke-width: 1.5;" width="84" x="431" y="484.0234"/><text fill="#000000" font-family="sans-serif" font-size="14" lengthAdjust="spacingAndGlyphs" textLength="70" x="438" y="504.0186">Processor</text><rect fill="#FEFECE" filter="url(#fzccz2akrej4l)" height="30.2969" style="stroke: #A80036; stroke-width: 1.5;" width="71" x="529" y="51"/><text fill="#000000" font-family="sans-serif" font-size="14" lengthAdjust="spacingAndGlyphs" textLength="57" x="536" y="70.9951">Rewriter</text><rect fill="#FEFECE" filter="url(#fzccz2akrej4l)" height="30.2969" style="stroke: #A80036; stroke-width: 1.5;" width="71" x="529" y="484.0234"/><text fill="#000000" font-family="sans-serif" font-size="14" lengthAdjust="spacingAndGlyphs" textLength="57" x="536" y="504.0186">Rewriter</text><rect fill="#FEFECE" filter="url(#fzccz2akrej4l)" height="30.2969" style="stroke: #A80036; stroke-width: 1.5;" width="76" x="614" y="51"/><text fill="#000000" font-family="sans-serif" font-size="14" lengthAdjust="spacingAndGlyphs" textLength="62" x="621" y="70.9951">Ontology</text><rect fill="#FEFECE" filter="url(#fzccz2akrej4l)" height="30.2969" style="stroke: #A80036; stroke-width: 1.5;" width="76" x="614" y="484.0234"/><text fill="#000000" font-family="sans-serif" font-size="14" lengthAdjust="spacingAndGlyphs" textLength="62" x="621" y="504.0186">Ontology</text><rect fill="#FEFECE" filter="url(#fzccz2akrej4l)" height="30.2969" style="stroke: #A80036; stroke-width: 1.5;" width="56" x="704" y="51"/><text fill="#000000" font-family="sans-serif" font-size="14" lengthAdjust="spacingAndGlyphs" textLength="42" x="711" y="70.9951">Graph</text><rect fill="#FEFECE" filter="url(#fzccz2akrej4l)" height="30.2969" style="stroke: #A80036; stroke-width: 1.5;" width="56" x="704" y="484.0234"/><text fill="#000000" font-family="sans-serif" font-size="14" lengthAdjust="spacingAndGlyphs" textLength="42" x="711" y="504.0186">Graph</text><rect fill="#FEFECE" filter="url(#fzccz2akrej4l)" height="30.2969" style="stroke: #A80036; stroke-width: 1.5;" width="69" x="774" y="51"/><text fill="#000000" font-family="sans-serif" font-size="14" lengthAdjust="spacingAndGlyphs" textLength="55" x="781" y="70.9951">Memory</text><rect fill="#FEFECE" filter="url(#fzccz2akrej4l)" height="30.2969" style="stroke: #A80036; stroke-width: 1.5;" width="69" x="774" y="484.0234"/><text fill="#000000" font-family="sans-serif" font-size="14" lengthAdjust="spacingAndGlyphs" textLength="55" x="781" y="504.0186">Memory</text><polygon fill="#A80036" points="237,113.4297,247,117.4297,237,121.4297,241,117.4297" style="stroke: #A80036; stroke-width: 1.0;"/><line style="stroke: #A80036; stroke-width: 1.0;" x1="27" x2="243" y1="117.4297" y2="117.4297"/><text fill="#000000" font-family="sans-serif" font-size="13" lengthAdjust="spacingAndGlyphs" textLength="198" x="34" y="112.3638">handle_document_upload(doc)</text><polygon fill="#A80036" points="365,142.5625,375,146.5625,365,150.5625,369,146.5625" style="stroke: #A80036; stroke-width: 1.0;"/><line style="stroke: #A80036; stroke-width: 1.0;" x1="249" x2="371" y1="146.5625" y2="146.5625"/><text fill="#000000" font-family="sans-serif" font-size="13" lengthAdjust="spacingAndGlyphs" textLength="54" x="256" y="141.4966">run(doc)</text><polygon fill="#A80036" points="463,171.6953,473,175.6953,463,179.6953,467,175.6953" style="stroke: #A80036; stroke-width: 1.0;"/><line style="stroke: #A80036; stroke-width: 1.0;" x1="377" x2="469" y1="175.6953" y2="175.6953"/><text fill="#000000" font-family="sans-serif" font-size="13" lengthAdjust="spacingAndGlyphs" textLength="74" x="384" y="170.6294">extract text</text><polygon fill="#A80036" points="388,200.8281,378,204.8281,388,208.8281,384,204.8281" style="stroke: #A80036; stroke-width: 1.0;"/><line style="stroke: #A80036; stroke-width: 1.0; stroke-dasharray: 2.0,2.0;" x1="382" x2="474" y1="204.8281" y2="204.8281"/><text fill="#000000" font-family="sans-serif" font-size="13" lengthAdjust="spacingAndGlyphs" textLength="49" x="394" y="199.7622">content</text><polygon fill="#A80036" points="554.5,229.9609,564.5,233.9609,554.5,237.9609,558.5,233.9609" style="stroke: #A80036; stroke-width: 1.0;"/><line style="stroke: #A80036; stroke-width: 1.0;" x1="377" x2="560.5" y1="233.9609" y2="233.9609"/><text fill="#000000" font-family="sans-serif" font-size="13" lengthAdjust="spacingAndGlyphs" textLength="63" x="384" y="228.895">clean text</text><polygon fill="#A80036" points="388,259.0938,378,263.0938,388,267.0938,384,263.0938" style="stroke: #A80036; stroke-width: 1.0;"/><line style="stroke: #A80036; stroke-width: 1.0; stroke-dasharray: 2.0,2.0;" x1="382" x2="565.5" y1="263.0938" y2="263.0938"/><text fill="#000000" font-family="sans-serif" font-size="13" lengthAdjust="spacingAndGlyphs" textLength="50" x="394" y="258.0278">cleaned</text><polygon fill="#A80036" points="642,288.2266,652,292.2266,642,296.2266,646,292.2266" style="stroke: #A80036; stroke-width: 1.0;"/><line style="stroke: #A80036; stroke-width: 1.0;" x1="377" x2="648" y1="292.2266" y2="292.2266"/><text fill="#000000" font-family="sans-serif" font-size="13" lengthAdjust="spacingAndGlyphs" textLength="96" x="384" y="287.1606">extract entities</text><polygon fill="#A80036" points="388,317.3594,378,321.3594,388,325.3594,384,321.3594" style="stroke: #A80036; stroke-width: 1.0;"/><line style="stroke: #A80036; stroke-width: 1.0; stroke-dasharray: 2.0,2.0;" x1="382" x2="653" y1="321.3594" y2="321.3594"/><text fill="#000000" font-family="sans-serif" font-size="13" lengthAdjust="spacingAndGlyphs" textLength="47" x="394" y="316.2935">entities</text><polygon fill="#A80036" points="722,346.4922,732,350.4922,722,354.4922,726,350.4922" style="stroke: #A80036; stroke-width: 1.0;"/><line style="stroke: #A80036; stroke-width: 1.0;" x1="377" x2="728" y1="350.4922" y2="350.4922"/><text fill="#000000" font-family="sans-serif" font-size="13" lengthAdjust="spacingAndGlyphs" textLength="86" x="384" y="345.4263">update graph</text><polygon fill="#A80036" points="388,375.625,378,379.625,388,383.625,384,379.625" style="stroke: #A80036; stroke-width: 1.0;"/><line style="stroke: #A80036; stroke-width: 1.0; stroke-dasharray: 2.0,2.0;" x1="382" x2="733" y1="379.625" y2="379.625"/><text fill="#000000" font-family="sans-serif" font-size="13" lengthAdjust="spacingAndGlyphs" textLength="64" x="394" y="374.5591">confirmed</text><polygon fill="#A80036" points="798.5,404.7578,808.5,408.7578,798.5,412.7578,802.5,408.7578" style="stroke: #A80036; stroke-width: 1.0;"/><line style="stroke: #A80036; stroke-width: 1.0;" x1="377" x2="804.5" y1="408.7578" y2="408.7578"/><text fill="#000000" font-family="sans-serif" font-size="13" lengthAdjust="spacingAndGlyphs" textLength="80" x="384" y="403.6919">store results</text><polygon fill="#A80036" points="388,433.8906,378,437.8906,388,441.8906,384,437.8906" style="stroke: #A80036; stroke-width: 1.0;"/><line style="stroke: #A80036; stroke-width: 1.0; stroke-dasharray: 2.0,2.0;" x1="382" x2="809.5" y1="437.8906" y2="437.8906"/><text fill="#000000" font-family="sans-serif" font-size="13" lengthAdjust="spacingAndGlyphs" textLength="41" x="394" y="432.8247">stored</text><polygon fill="#A80036" points="260,463.0234,250,467.0234,260,471.0234,256,467.0234" style="stroke: #A80036; stroke-width: 1.0;"/><line style="stroke: #A80036; stroke-width: 1.0; stroke-dasharray: 2.0,2.0;" x1="254" x2="376" y1="467.0234" y2="467.0234"/><text fill="#000000" font-family="sans-serif" font-size="13" lengthAdjust="spacingAndGlyphs" textLength="104" x="266" y="461.9575">return summary</text><!--MD5=[ceaddc2b41150cfe5c46899ffeb8ed03]
@startuml
actor User
participant Integration
participant Workflow
participant Processor
participant Rewriter
participant Ontology
participant Graph
participant Memory

User -> Integration: handle_document_upload(doc)
Integration -> Workflow: run(doc)
Workflow -> Processor: extract text
Processor - -> Workflow: content
Workflow -> Rewriter: clean text
Rewriter - -> Workflow: cleaned
Workflow -> Ontology: extract entities
Ontology - -> Workflow: entities
Workflow -> Graph: update graph
Graph - -> Workflow: confirmed
Workflow -> Memory: store results
Memory - -> Workflow: stored
Integration <- - Workflow: return summary
@enduml

PlantUML version 1.2020.02(Sun Mar 01 10:22:07 UTC 2020)
(GPL source distribution)
Java Runtime: OpenJDK Runtime Environment
JVM: OpenJDK 64-Bit Server VM
Java Version: 21.0.7+6-Ubuntu-0ubuntu124.04
Operating System: Linux
Default Encoding: UTF-8
Language: en
Country: null
--></g></svg>
