<?xml version="1.0" encoding="UTF-8" standalone="no"?><svg xmlns="http://www.w3.org/2000/svg" xmlns:xlink="http://www.w3.org/1999/xlink" contentScriptType="application/ecmascript" contentStyleType="text/css" height="630px" preserveAspectRatio="none" style="width:1355px;height:630px;" version="1.1" viewBox="0 0 1355 630" width="1355px" zoomAndPan="magnify"><defs><filter height="300%" id="f2dap4hlg05hw" width="300%" x="-1" y="-1"><feGaussianBlur result="blurOut" stdDeviation="2.0"/><feColorMatrix in="blurOut" result="blurOut2" type="matrix" values="0 0 0 0 0 0 0 0 0 0 0 0 0 0 0 0 0 0 .4 0"/><feOffset dx="4.0" dy="4.0" in="blurOut2" result="blurOut3"/><feBlend in="SourceGraphic" in2="blurOut3" mode="normal"/></filter></defs><g><line style="stroke: #A80036; stroke-width: 1.0; stroke-dasharray: 5.0,5.0;" x1="24" x2="24" y1="86.2969" y2="543.2891"/><line style="stroke: #A80036; stroke-width: 1.0; stroke-dasharray: 5.0,5.0;" x1="218" x2="218" y1="86.2969" y2="543.2891"/><line style="stroke: #A80036; stroke-width: 1.0; stroke-dasharray: 5.0,5.0;" x1="302" x2="302" y1="86.2969" y2="543.2891"/><line style="stroke: #A80036; stroke-width: 1.0; stroke-dasharray: 5.0,5.0;" x1="393" x2="393" y1="86.2969" y2="543.2891"/><line style="stroke: #A80036; stroke-width: 1.0; stroke-dasharray: 5.0,5.0;" x1="489" x2="489" y1="86.2969" y2="543.2891"/><line style="stroke: #A80036; stroke-width: 1.0; stroke-dasharray: 5.0,5.0;" x1="558" x2="558" y1="86.2969" y2="543.2891"/><line style="stroke: #A80036; stroke-width: 1.0; stroke-dasharray: 5.0,5.0;" x1="623" x2="623" y1="86.2969" y2="543.2891"/><line style="stroke: #A80036; stroke-width: 1.0; stroke-dasharray: 5.0,5.0;" x1="697" x2="697" y1="86.2969" y2="543.2891"/><line style="stroke: #A80036; stroke-width: 1.0; stroke-dasharray: 5.0,5.0;" x1="768" x2="768" y1="86.2969" y2="543.2891"/><line style="stroke: #A80036; stroke-width: 1.0; stroke-dasharray: 5.0,5.0;" x1="849" x2="849" y1="86.2969" y2="543.2891"/><line style="stroke: #A80036; stroke-width: 1.0; stroke-dasharray: 5.0,5.0;" x1="935" x2="935" y1="86.2969" y2="543.2891"/><line style="stroke: #A80036; stroke-width: 1.0; stroke-dasharray: 5.0,5.0;" x1="1015" x2="1015" y1="86.2969" y2="543.2891"/><line style="stroke: #A80036; stroke-width: 1.0; stroke-dasharray: 5.0,5.0;" x1="1101" x2="1101" y1="86.2969" y2="543.2891"/><line style="stroke: #A80036; stroke-width: 1.0; stroke-dasharray: 5.0,5.0;" x1="1193" x2="1193" y1="86.2969" y2="543.2891"/><line style="stroke: #A80036; stroke-width: 1.0; stroke-dasharray: 5.0,5.0;" x1="1295" x2="1295" y1="86.2969" y2="543.2891"/><text fill="#000000" font-family="sans-serif" font-size="14" lengthAdjust="spacingAndGlyphs" textLength="27" x="8" y="82.9951">App</text><ellipse cx="24.5" cy="13" fill="#FEFECE" filter="url(#f2dap4hlg05hw)" rx="8" ry="8" style="stroke: #A80036; stroke-width: 2.0;"/><path d="M24.5,21 L24.5,48 M11.5,29 L37.5,29 M24.5,48 L11.5,63 M24.5,48 L37.5,63 " fill="none" filter="url(#f2dap4hlg05hw)" style="stroke: #A80036; stroke-width: 2.0;"/><text fill="#000000" font-family="sans-serif" font-size="14" lengthAdjust="spacingAndGlyphs" textLength="27" x="8" y="555.2842">App</text><ellipse cx="24.5" cy="568.5859" fill="#FEFECE" filter="url(#f2dap4hlg05hw)" rx="8" ry="8" style="stroke: #A80036; stroke-width: 2.0;"/><path d="M24.5,576.5859 L24.5,603.5859 M11.5,584.5859 L37.5,584.5859 M24.5,603.5859 L11.5,618.5859 M24.5,603.5859 L37.5,618.5859 " fill="none" filter="url(#f2dap4hlg05hw)" style="stroke: #A80036; stroke-width: 2.0;"/><rect fill="#FEFECE" filter="url(#f2dap4hlg05hw)" height="30.2969" style="stroke: #A80036; stroke-width: 1.5;" width="81" x="176" y="51"/><text fill="#000000" font-family="sans-serif" font-size="14" lengthAdjust="spacingAndGlyphs" textLength="67" x="183" y="70.9951">Container</text><rect fill="#FEFECE" filter="url(#f2dap4hlg05hw)" height="30.2969" style="stroke: #A80036; stroke-width: 1.5;" width="81" x="176" y="542.2891"/><text fill="#000000" font-family="sans-serif" font-size="14" lengthAdjust="spacingAndGlyphs" textLength="67" x="183" y="562.2842">Container</text><rect fill="#FEFECE" filter="url(#f2dap4hlg05hw)" height="30.2969" style="stroke: #A80036; stroke-width: 1.5;" width="58" x="271" y="51"/><text fill="#000000" font-family="sans-serif" font-size="14" lengthAdjust="spacingAndGlyphs" textLength="44" x="278" y="70.9951">Config</text><rect fill="#FEFECE" filter="url(#f2dap4hlg05hw)" height="30.2969" style="stroke: #A80036; stroke-width: 1.5;" width="58" x="271" y="542.2891"/><text fill="#000000" font-family="sans-serif" font-size="14" lengthAdjust="spacingAndGlyphs" textLength="44" x="278" y="562.2842">Config</text><rect fill="#FEFECE" filter="url(#f2dap4hlg05hw)" height="30.2969" style="stroke: #A80036; stroke-width: 1.5;" width="96" x="343" y="51"/><text fill="#000000" font-family="sans-serif" font-size="14" lengthAdjust="spacingAndGlyphs" textLength="82" x="350" y="70.9951">Persistence</text><rect fill="#FEFECE" filter="url(#f2dap4hlg05hw)" height="30.2969" style="stroke: #A80036; stroke-width: 1.5;" width="96" x="343" y="542.2891"/><text fill="#000000" font-family="sans-serif" font-size="14" lengthAdjust="spacingAndGlyphs" textLength="82" x="350" y="562.2842">Persistence</text><rect fill="#FEFECE" filter="url(#f2dap4hlg05hw)" height="30.2969" style="stroke: #A80036; stroke-width: 1.5;" width="69" x="453" y="51"/><text fill="#000000" font-family="sans-serif" font-size="14" lengthAdjust="spacingAndGlyphs" textLength="55" x="460" y="70.9951">Security</text><rect fill="#FEFECE" filter="url(#f2dap4hlg05hw)" height="30.2969" style="stroke: #A80036; stroke-width: 1.5;" width="69" x="453" y="542.2891"/><text fill="#000000" font-family="sans-serif" font-size="14" lengthAdjust="spacingAndGlyphs" textLength="55" x="460" y="562.2842">Security</text><rect fill="#FEFECE" filter="url(#f2dap4hlg05hw)" height="30.2969" style="stroke: #A80036; stroke-width: 1.5;" width="40" x="536" y="51"/><text fill="#000000" font-family="sans-serif" font-size="14" lengthAdjust="spacingAndGlyphs" textLength="26" x="543" y="70.9951">LLM</text><rect fill="#FEFECE" filter="url(#f2dap4hlg05hw)" height="30.2969" style="stroke: #A80036; stroke-width: 1.5;" width="40" x="536" y="542.2891"/><text fill="#000000" font-family="sans-serif" font-size="14" lengthAdjust="spacingAndGlyphs" textLength="26" x="543" y="562.2842">LLM</text><rect fill="#FEFECE" filter="url(#f2dap4hlg05hw)" height="30.2969" style="stroke: #A80036; stroke-width: 1.5;" width="63" x="590" y="51"/><text fill="#000000" font-family="sans-serif" font-size="14" lengthAdjust="spacingAndGlyphs" textLength="49" x="597" y="70.9951">Embed</text><rect fill="#FEFECE" filter="url(#f2dap4hlg05hw)" height="30.2969" style="stroke: #A80036; stroke-width: 1.5;" width="63" x="590" y="542.2891"/><text fill="#000000" font-family="sans-serif" font-size="14" lengthAdjust="spacingAndGlyphs" textLength="49" x="597" y="562.2842">Embed</text><rect fill="#FEFECE" filter="url(#f2dap4hlg05hw)" height="30.2969" style="stroke: #A80036; stroke-width: 1.5;" width="56" x="667" y="51"/><text fill="#000000" font-family="sans-serif" font-size="14" lengthAdjust="spacingAndGlyphs" textLength="42" x="674" y="70.9951">Graph</text><rect fill="#FEFECE" filter="url(#f2dap4hlg05hw)" height="30.2969" style="stroke: #A80036; stroke-width: 1.5;" width="56" x="667" y="542.2891"/><text fill="#000000" font-family="sans-serif" font-size="14" lengthAdjust="spacingAndGlyphs" textLength="42" x="674" y="562.2842">Graph</text><rect fill="#FEFECE" filter="url(#f2dap4hlg05hw)" height="30.2969" style="stroke: #A80036; stroke-width: 1.5;" width="59" x="737" y="51"/><text fill="#000000" font-family="sans-serif" font-size="14" lengthAdjust="spacingAndGlyphs" textLength="45" x="744" y="70.9951">Vector</text><rect fill="#FEFECE" filter="url(#f2dap4hlg05hw)" height="30.2969" style="stroke: #A80036; stroke-width: 1.5;" width="59" x="737" y="542.2891"/><text fill="#000000" font-family="sans-serif" font-size="14" lengthAdjust="spacingAndGlyphs" textLength="45" x="744" y="562.2842">Vector</text><rect fill="#FEFECE" filter="url(#f2dap4hlg05hw)" height="30.2969" style="stroke: #A80036; stroke-width: 1.5;" width="75" x="810" y="51"/><text fill="#000000" font-family="sans-serif" font-size="14" lengthAdjust="spacingAndGlyphs" textLength="61" x="817" y="70.9951">RTGraph</text><rect fill="#FEFECE" filter="url(#f2dap4hlg05hw)" height="30.2969" style="stroke: #A80036; stroke-width: 1.5;" width="75" x="810" y="542.2891"/><text fill="#000000" font-family="sans-serif" font-size="14" lengthAdjust="spacingAndGlyphs" textLength="61" x="817" y="562.2842">RTGraph</text><rect fill="#FEFECE" filter="url(#f2dap4hlg05hw)" height="30.2969" style="stroke: #A80036; stroke-width: 1.5;" width="69" x="899" y="51"/><text fill="#000000" font-family="sans-serif" font-size="14" lengthAdjust="spacingAndGlyphs" textLength="55" x="906" y="70.9951">Memory</text><rect fill="#FEFECE" filter="url(#f2dap4hlg05hw)" height="30.2969" style="stroke: #A80036; stroke-width: 1.5;" width="69" x="899" y="542.2891"/><text fill="#000000" font-family="sans-serif" font-size="14" lengthAdjust="spacingAndGlyphs" textLength="55" x="906" y="562.2842">Memory</text><rect fill="#FEFECE" filter="url(#f2dap4hlg05hw)" height="30.2969" style="stroke: #A80036; stroke-width: 1.5;" width="63" x="982" y="51"/><text fill="#000000" font-family="sans-serif" font-size="14" lengthAdjust="spacingAndGlyphs" textLength="49" x="989" y="70.9951">Review</text><rect fill="#FEFECE" filter="url(#f2dap4hlg05hw)" height="30.2969" style="stroke: #A80036; stroke-width: 1.5;" width="63" x="982" y="542.2891"/><text fill="#000000" font-family="sans-serif" font-size="14" lengthAdjust="spacingAndGlyphs" textLength="49" x="989" y="562.2842">Review</text><rect fill="#FEFECE" filter="url(#f2dap4hlg05hw)" height="30.2969" style="stroke: #A80036; stroke-width: 1.5;" width="80" x="1059" y="51"/><text fill="#000000" font-family="sans-serif" font-size="14" lengthAdjust="spacingAndGlyphs" textLength="66" x="1066" y="70.9951">Violations</text><rect fill="#FEFECE" filter="url(#f2dap4hlg05hw)" height="30.2969" style="stroke: #A80036; stroke-width: 1.5;" width="80" x="1059" y="542.2891"/><text fill="#000000" font-family="sans-serif" font-size="14" lengthAdjust="spacingAndGlyphs" textLength="66" x="1066" y="562.2842">Violations</text><rect fill="#FEFECE" filter="url(#f2dap4hlg05hw)" height="30.2969" style="stroke: #A80036; stroke-width: 1.5;" width="76" x="1153" y="51"/><text fill="#000000" font-family="sans-serif" font-size="14" lengthAdjust="spacingAndGlyphs" textLength="62" x="1160" y="70.9951">Workflow</text><rect fill="#FEFECE" filter="url(#f2dap4hlg05hw)" height="30.2969" style="stroke: #A80036; stroke-width: 1.5;" width="76" x="1153" y="542.2891"/><text fill="#000000" font-family="sans-serif" font-size="14" lengthAdjust="spacingAndGlyphs" textLength="62" x="1160" y="562.2842">Workflow</text><rect fill="#FEFECE" filter="url(#f2dap4hlg05hw)" height="30.2969" style="stroke: #A80036; stroke-width: 1.5;" width="101" x="1243" y="51"/><text fill="#000000" font-family="sans-serif" font-size="14" lengthAdjust="spacingAndGlyphs" textLength="87" x="1250" y="70.9951">Orchestrator</text><rect fill="#FEFECE" filter="url(#f2dap4hlg05hw)" height="30.2969" style="stroke: #A80036; stroke-width: 1.5;" width="101" x="1243" y="542.2891"/><text fill="#000000" font-family="sans-serif" font-size="14" lengthAdjust="spacingAndGlyphs" textLength="87" x="1250" y="562.2842">Orchestrator</text><polygon fill="#A80036" points="206.5,113.4297,216.5,117.4297,206.5,121.4297,210.5,117.4297" style="stroke: #A80036; stroke-width: 1.0;"/><line style="stroke: #A80036; stroke-width: 1.0;" x1="24.5" x2="212.5" y1="117.4297" y2="117.4297"/><text fill="#000000" font-family="sans-serif" font-size="13" lengthAdjust="spacingAndGlyphs" textLength="170" x="31.5" y="112.3638">create_service_container()</text><polygon fill="#A80036" points="290,142.5625,300,146.5625,290,150.5625,294,146.5625" style="stroke: #A80036; stroke-width: 1.0;"/><line style="stroke: #A80036; stroke-width: 1.0;" x1="218.5" x2="296" y1="146.5625" y2="146.5625"/><text fill="#000000" font-family="sans-serif" font-size="13" lengthAdjust="spacingAndGlyphs" textLength="41" x="225.5" y="141.4966">create</text><polygon fill="#A80036" points="381,171.6953,391,175.6953,381,179.6953,385,175.6953" style="stroke: #A80036; stroke-width: 1.0;"/><line style="stroke: #A80036; stroke-width: 1.0;" x1="218.5" x2="387" y1="175.6953" y2="175.6953"/><text fill="#000000" font-family="sans-serif" font-size="13" lengthAdjust="spacingAndGlyphs" textLength="41" x="225.5" y="170.6294">create</text><polygon fill="#A80036" points="477.5,200.8281,487.5,204.8281,477.5,208.8281,481.5,204.8281" style="stroke: #A80036; stroke-width: 1.0;"/><line style="stroke: #A80036; stroke-width: 1.0;" x1="218.5" x2="483.5" y1="204.8281" y2="204.8281"/><text fill="#000000" font-family="sans-serif" font-size="13" lengthAdjust="spacingAndGlyphs" textLength="41" x="225.5" y="199.7622">create</text><polygon fill="#A80036" points="546,229.9609,556,233.9609,546,237.9609,550,233.9609" style="stroke: #A80036; stroke-width: 1.0;"/><line style="stroke: #A80036; stroke-width: 1.0;" x1="218.5" x2="552" y1="233.9609" y2="233.9609"/><text fill="#000000" font-family="sans-serif" font-size="13" lengthAdjust="spacingAndGlyphs" textLength="41" x="225.5" y="228.895">create</text><polygon fill="#A80036" points="611.5,259.0938,621.5,263.0938,611.5,267.0938,615.5,263.0938" style="stroke: #A80036; stroke-width: 1.0;"/><line style="stroke: #A80036; stroke-width: 1.0;" x1="218.5" x2="617.5" y1="263.0938" y2="263.0938"/><text fill="#000000" font-family="sans-serif" font-size="13" lengthAdjust="spacingAndGlyphs" textLength="41" x="225.5" y="258.0278">create</text><polygon fill="#A80036" points="685,288.2266,695,292.2266,685,296.2266,689,292.2266" style="stroke: #A80036; stroke-width: 1.0;"/><line style="stroke: #A80036; stroke-width: 1.0;" x1="218.5" x2="691" y1="292.2266" y2="292.2266"/><text fill="#000000" font-family="sans-serif" font-size="13" lengthAdjust="spacingAndGlyphs" textLength="41" x="225.5" y="287.1606">create</text><polygon fill="#A80036" points="756.5,317.3594,766.5,321.3594,756.5,325.3594,760.5,321.3594" style="stroke: #A80036; stroke-width: 1.0;"/><line style="stroke: #A80036; stroke-width: 1.0;" x1="218.5" x2="762.5" y1="321.3594" y2="321.3594"/><text fill="#000000" font-family="sans-serif" font-size="13" lengthAdjust="spacingAndGlyphs" textLength="41" x="225.5" y="316.2935">create</text><polygon fill="#A80036" points="837.5,346.4922,847.5,350.4922,837.5,354.4922,841.5,350.4922" style="stroke: #A80036; stroke-width: 1.0;"/><line style="stroke: #A80036; stroke-width: 1.0;" x1="218.5" x2="843.5" y1="350.4922" y2="350.4922"/><text fill="#000000" font-family="sans-serif" font-size="13" lengthAdjust="spacingAndGlyphs" textLength="41" x="225.5" y="345.4263">create</text><polygon fill="#A80036" points="923.5,375.625,933.5,379.625,923.5,383.625,927.5,379.625" style="stroke: #A80036; stroke-width: 1.0;"/><line style="stroke: #A80036; stroke-width: 1.0;" x1="218.5" x2="929.5" y1="379.625" y2="379.625"/><text fill="#000000" font-family="sans-serif" font-size="13" lengthAdjust="spacingAndGlyphs" textLength="41" x="225.5" y="374.5591">create</text><polygon fill="#A80036" points="1003.5,404.7578,1013.5,408.7578,1003.5,412.7578,1007.5,408.7578" style="stroke: #A80036; stroke-width: 1.0;"/><line style="stroke: #A80036; stroke-width: 1.0;" x1="218.5" x2="1009.5" y1="408.7578" y2="408.7578"/><text fill="#000000" font-family="sans-serif" font-size="13" lengthAdjust="spacingAndGlyphs" textLength="41" x="225.5" y="403.6919">create</text><polygon fill="#A80036" points="1089,433.8906,1099,437.8906,1089,441.8906,1093,437.8906" style="stroke: #A80036; stroke-width: 1.0;"/><line style="stroke: #A80036; stroke-width: 1.0;" x1="218.5" x2="1095" y1="437.8906" y2="437.8906"/><text fill="#000000" font-family="sans-serif" font-size="13" lengthAdjust="spacingAndGlyphs" textLength="41" x="225.5" y="432.8247">create</text><polygon fill="#A80036" points="1181,463.0234,1191,467.0234,1181,471.0234,1185,467.0234" style="stroke: #A80036; stroke-width: 1.0;"/><line style="stroke: #A80036; stroke-width: 1.0;" x1="218.5" x2="1187" y1="467.0234" y2="467.0234"/><text fill="#000000" font-family="sans-serif" font-size="13" lengthAdjust="spacingAndGlyphs" textLength="41" x="225.5" y="461.9575">create</text><polygon fill="#A80036" points="1283.5,492.1563,1293.5,496.1563,1283.5,500.1563,1287.5,496.1563" style="stroke: #A80036; stroke-width: 1.0;"/><line style="stroke: #A80036; stroke-width: 1.0;" x1="218.5" x2="1289.5" y1="496.1563" y2="496.1563"/><text fill="#000000" font-family="sans-serif" font-size="13" lengthAdjust="spacingAndGlyphs" textLength="41" x="225.5" y="491.0903">create</text><polygon fill="#A80036" points="35.5,521.2891,25.5,525.2891,35.5,529.2891,31.5,525.2891" style="stroke: #A80036; stroke-width: 1.0;"/><line style="stroke: #A80036; stroke-width: 1.0; stroke-dasharray: 2.0,2.0;" x1="29.5" x2="217.5" y1="525.2891" y2="525.2891"/><text fill="#000000" font-family="sans-serif" font-size="13" lengthAdjust="spacingAndGlyphs" textLength="59" x="41.5" y="520.2231">initialized</text><!--MD5=[7ba711df9904c8041f4963fde96dfef9]
@startuml
actor App
participant Container
participant Config
participant Persistence
participant Security
participant LLM
participant Embed
participant Graph
participant Vector
participant RTGraph
participant Memory
participant Review
participant Violations
participant Workflow
participant Orchestrator

App -> Container: create_service_container()
Container -> Config: create
Container -> Persistence: create
Container -> Security: create
Container -> LLM: create
Container -> Embed: create
Container -> Graph: create
Container -> Vector: create
Container -> RTGraph: create
Container -> Memory: create
Container -> Review: create
Container -> Violations: create
Container -> Workflow: create
Container -> Orchestrator: create
Container - -> App: initialized
@enduml

PlantUML version 1.2020.02(Sun Mar 01 10:22:07 UTC 2020)
(GPL source distribution)
Java Runtime: OpenJDK Runtime Environment
JVM: OpenJDK 64-Bit Server VM
Java Version: 21.0.7+6-Ubuntu-0ubuntu124.04
Operating System: Linux
Default Encoding: UTF-8
Language: en
Country: null
--></g></svg>
